<svg width="24" height="25" viewBox="0 0 24 25" fill="#c59c20" xmlns="http://www.w3.org/2000/svg">
<g clip-path="url(#clip0_27998_7623)">
<path fill="#c59c20" d="M12.0358 0.630042V0.641865C12.0476 0.700978 12.0476 0.771914 12.0476 0.84285V9.36699C12.0358 9.41428 12.0003 9.4261 11.9649 9.44975C11.7166 9.56797 11.4801 9.67438 11.2319 9.78078C10.889 9.93448 10.5343 10.1 10.1915 10.2537L8.95008 10.8212C8.60722 10.9749 8.26436 11.1286 7.93333 11.2823C7.53136 11.4714 7.11757 11.6488 6.7156 11.8379C6.37274 11.9916 6.02988 12.1571 5.6752 12.3108C5.39146 12.4409 5.10771 12.5591 4.83579 12.6892C4.81215 12.701 4.7885 12.7128 4.76486 12.7128C4.75303 12.7128 4.75303 12.7128 4.74121 12.701L5.06042 12.169C5.6752 11.1522 6.27816 10.1473 6.89294 9.13054C7.54318 8.04285 8.20525 6.95517 8.8555 5.86748C9.45845 4.86255 10.0732 3.85763 10.6762 2.8527C11.1136 2.1197 11.5629 1.38669 12.0003 0.653687C12.0121 0.630042 12.024 0.618219 12.024 0.594574H12.0358C12.024 0.606397 12.0358 0.618219 12.0358 0.630042Z"  fill-opacity="0.6"/>
<path fill="#c59c20" d="M19.2945 12.701L19.3063 12.7128L17.5684 13.7414L12.1063 16.969C12.0827 16.9808 12.059 16.9926 12.0472 17.0044C12.0117 17.0044 12.0117 16.969 12.0117 16.9571V16.8507V9.54432C12.0117 9.50885 12.0117 9.46156 12.0235 9.4261C12.0354 9.37881 12.0708 9.39063 12.1063 9.40245C12.26 9.47339 12.4255 9.54432 12.5792 9.61526C13.0403 9.82807 13.5014 10.0409 13.9625 10.2419C14.3644 10.4192 14.7546 10.6084 15.1565 10.7857C15.5585 10.963 15.9605 11.1522 16.3625 11.3295C16.7053 11.4832 17.06 11.6488 17.4029 11.8025C17.7457 11.9561 18.1004 12.1217 18.4432 12.2754C18.7152 12.3936 18.9871 12.5236 19.259 12.6419C19.259 12.6773 19.2708 12.6891 19.2945 12.701Z" />
<path fill="#c59c20" d="M12.0353 24.3463C12.0353 24.3581 12.0235 24.3699 12.0235 24.3818H12.0117C12.0117 24.3581 11.988 24.3463 11.9762 24.3226C11.2432 23.2941 10.5102 22.2537 9.77718 21.2251C9.03235 20.1729 8.2757 19.1089 7.53087 18.0566C6.80969 17.0399 6.07668 16.0113 5.3555 14.9946C5.16634 14.7226 4.97718 14.4625 4.78801 14.1906C4.77619 14.167 4.76437 14.1552 4.74072 14.1197C4.77619 14.1197 4.79984 14.1433 4.81166 14.1552C5.84023 14.7581 6.85698 15.3611 7.88555 15.964C9.06782 16.6616 10.2383 17.3591 11.4205 18.0566L12.0235 18.4113C12.0471 18.435 12.0471 18.4586 12.0471 18.4823V24.1808C12.0471 24.2399 12.0471 24.299 12.0353 24.3463Z"  fill-opacity="0.6"/>
<path fill="#c59c20" d="M4.729 12.7246V12.7128C5.10733 12.5473 5.47383 12.3699 5.85216 12.2044C6.33689 11.9798 6.82161 11.767 7.30634 11.5423C7.67285 11.3768 8.05117 11.1995 8.41767 11.034C8.96152 10.7857 9.49354 10.5492 10.0374 10.301C10.4039 10.1355 10.7704 9.96994 11.1487 9.7926C11.4088 9.67437 11.6807 9.55614 11.9408 9.43792C11.9645 9.42609 11.9999 9.41427 12.0118 9.39062C12.0236 9.39062 12.0236 9.40245 12.0118 9.41427V16.9217C12.0118 16.9571 11.9999 16.9926 12.0236 17.0162C11.9999 17.0517 11.9763 17.0162 11.9645 17.0044C11.8581 16.9453 11.7517 16.8862 11.6453 16.8153C9.36349 15.4675 7.06989 14.1079 4.78812 12.7601C4.77629 12.7483 4.75265 12.7364 4.729 12.7246Z"  fill-opacity="0.8"/>
<path fill="#c59c20" d="M19.271 14.1197H19.2828C19.2828 14.1433 19.2592 14.167 19.2473 14.1906C17.072 17.2527 14.8966 20.3266 12.7212 23.3887C12.4966 23.7079 12.2601 24.0271 12.0355 24.3463C12.0237 24.3345 12.0237 24.3226 12.0237 24.3108V24.2399V18.5059V18.3995C12.5202 18.1039 13.005 17.8202 13.5015 17.5246C15.4168 16.3896 17.3321 15.2665 19.2355 14.1315C19.2473 14.1433 19.2591 14.1315 19.271 14.1197Z"  fill-opacity="0.8"/>
<path fill="#c59c20" d="M12.0236 9.41429V9.39065V9.31971V0.736458C12.0236 0.70099 12.0118 0.677344 12.0355 0.641876C14.4355 4.62611 16.8355 8.59853 19.2236 12.5828C19.2473 12.6182 19.2828 12.6655 19.2946 12.7128C19.1291 12.6537 18.9754 12.5709 18.8217 12.5C18.6325 12.4172 18.4315 12.3227 18.2424 12.2399C18.1241 12.1808 17.9941 12.1335 17.8759 12.0744C17.6749 11.9798 17.4739 11.897 17.2729 11.8025C17.1547 11.7552 17.0365 11.6961 16.9182 11.637L16.1379 11.2823C16.0079 11.2232 15.8778 11.164 15.736 11.1049L15.1685 10.8567C15.0502 10.8094 14.932 10.7503 14.8138 10.6911L14.0335 10.3365C13.9034 10.2773 13.7734 10.2182 13.6315 10.1591L13.064 9.91084C12.934 9.85173 12.8158 9.79262 12.6857 9.7335C12.4611 9.6271 12.2365 9.52069 12 9.42611C12.0355 9.41429 12.0236 9.41429 12.0236 9.41429Z"  fill-opacity="0.8"/>
</g>
<defs>
<clipPath id="clip0_27998_7623">
<rect width="24" height="24" fill="white" transform="translate(0 0.5)"/>
</clipPath>
</defs>
</svg>
